<svg width="1280" height="436" viewBox="0 0 1280 436" fill="none" xmlns="http://www.w3.org/2000/svg">
<circle cx="218.157" cy="217.842" r="148.923" transform="rotate(-25.2176 218.157 217.842)" fill="white"/>
<path fill-rule="evenodd" clip-rule="evenodd" d="M365.434 148.075C384.372 188.289 385.48 232.315 371.966 271.232C358.056 311.293 328.652 345.938 287.255 365.434C245.858 384.929 200.421 385.529 160.677 370.736C122.069 356.366 88.8342 327.469 69.896 287.255C31.4625 205.644 66.4643 108.33 148.075 69.896C229.685 31.4625 327 66.4643 365.434 148.075ZM94.4796 230.171L131.457 308.69C167.843 343.132 223.003 353.689 271.065 331.055C319.127 308.421 346.122 259.174 342.747 209.186L305.769 130.667C302.239 123.172 293.302 119.957 285.808 123.487L274.168 128.969C266.673 132.498 263.458 141.435 266.988 148.93L311.736 243.948C315.265 251.443 312.051 260.38 304.556 263.909L303.614 264.353C296.119 267.883 287.182 264.668 283.653 257.173L238.34 160.955C235.122 154.123 226.976 151.193 220.145 154.41C213.313 157.628 210.383 165.774 213.6 172.606L247.618 244.839C251.147 252.333 247.933 261.27 240.438 264.8L239.496 265.244C232.001 268.773 223.064 265.559 219.535 258.064L185.517 185.831C182.3 178.999 174.154 176.069 167.322 179.286C160.491 182.504 157.561 190.65 160.778 197.482L184.55 247.96C188.08 255.455 184.865 264.392 177.371 267.922L176.429 268.365C168.934 271.895 159.997 268.68 156.468 261.186L133.261 211.908C129.731 204.413 120.794 201.198 113.299 204.728L101.659 210.21C94.1644 213.739 90.95 222.676 94.4796 230.171Z" fill="black"/>
<path d="M1224.19 179.08C1235.89 179.08 1245.88 181.51 1254.16 186.37C1262.44 191.05 1268.74 197.53 1273.06 205.81C1277.56 213.91 1279.81 223.18 1279.81 233.62C1279.81 235.6 1279.72 237.67 1279.54 239.83C1279.36 241.81 1279 243.61 1278.46 245.23H1198C1198.18 264.67 1201.6 278.71 1208.26 287.35C1215.1 295.81 1225.18 300.04 1238.5 300.04C1247.5 300.04 1254.79 298.6 1260.37 295.72C1265.95 292.84 1271.17 288.61 1276.03 283.03L1278.73 285.46C1273.15 295.36 1265.68 303.1 1256.32 308.68C1247.14 314.26 1236.07 317.05 1223.11 317.05C1210.33 317.05 1198.99 314.35 1189.09 308.95C1179.19 303.37 1171.45 295.45 1165.87 285.19C1160.29 274.93 1157.5 262.69 1157.5 248.47C1157.5 233.71 1160.74 221.2 1167.22 210.94C1173.7 200.5 1181.98 192.58 1192.06 187.18C1202.32 181.78 1213.03 179.08 1224.19 179.08ZM1223.38 184.48C1218.16 184.48 1213.66 186.1 1209.88 189.34C1206.28 192.4 1203.4 197.98 1201.24 206.08C1199.26 214 1198.18 225.25 1198 239.83H1244.17C1245.97 220.21 1245.25 206.08 1242.01 197.44C1238.77 188.8 1232.56 184.48 1223.38 184.48Z" fill="black"/>
<path d="M1050.52 317.05C1039.9 317.05 1030.36 314.71 1021.9 310.03C1013.44 305.17 1006.69 297.79 1001.65 287.89C996.789 277.81 994.359 264.94 994.359 249.28C994.359 233.44 997.149 220.39 1002.73 210.13C1008.31 199.69 1015.69 191.95 1024.87 186.91C1034.05 181.69 1044.04 179.08 1054.84 179.08C1061.14 179.08 1067.17 179.71 1072.93 180.97C1078.69 182.23 1083.82 184.12 1088.32 186.64V151.54C1088.32 147.76 1087.69 144.97 1086.43 143.17C1085.35 141.37 1082.92 140.11 1079.14 139.39L1074.01 138.31V135.61L1123.15 123.73L1126.12 126.16L1125.04 163.96V295.99C1125.04 299.59 1125.67 302.56 1126.93 304.9C1128.19 307.06 1130.53 308.59 1133.95 309.49L1136.38 310.3V313L1090.21 315.97L1087.78 306.25C1082.92 309.49 1077.34 312.1 1071.04 314.08C1064.92 316.06 1058.08 317.05 1050.52 317.05ZM1066.18 307.06C1073.74 307.06 1080.67 304.81 1086.97 300.31V193.12C1080.31 188.8 1073.47 186.64 1066.45 186.64C1057.81 186.64 1050.43 191.68 1044.31 201.76C1038.19 211.66 1035.13 227.32 1035.13 248.74C1035.13 270.16 1038.01 285.28 1043.77 294.1C1049.53 302.74 1057 307.06 1066.18 307.06Z" fill="black"/>
<path d="M884.852 317.05C874.412 317.05 865.592 314.08 858.392 308.14C851.372 302.2 847.862 293.65 847.862 282.49C847.862 274.03 852.182 266.29 860.822 259.27C869.462 252.07 883.052 246.67 901.592 243.07C904.472 242.53 907.712 241.99 911.312 241.45C914.912 240.73 918.692 240.01 922.652 239.29V217.96C922.652 205.72 921.122 197.17 918.062 192.31C915.182 187.27 910.592 184.75 904.292 184.75C899.972 184.75 896.552 186.19 894.032 189.07C891.512 191.77 889.892 196.54 889.172 203.38L888.632 206.35C888.272 214.09 886.382 219.76 882.962 223.36C879.542 226.96 875.312 228.76 870.272 228.76C865.592 228.76 861.722 227.32 858.662 224.44C855.602 221.56 854.072 217.69 854.072 212.83C854.072 205.45 856.592 199.24 861.632 194.2C866.852 189.16 873.692 185.38 882.152 182.86C890.612 180.34 899.792 179.08 909.692 179.08C925.712 179.08 938.042 183.04 946.682 190.96C955.502 198.7 959.912 211.39 959.912 229.03V288.7C959.912 296.8 963.692 300.85 971.252 300.85H977.192L979.622 303.01C976.202 307.33 972.422 310.66 968.282 313C964.322 315.34 958.652 316.51 951.272 316.51C943.352 316.51 937.052 314.71 932.372 311.11C927.872 307.33 924.902 302.38 923.462 296.26C918.062 302.02 912.482 306.97 906.722 311.11C901.142 315.07 893.852 317.05 884.852 317.05ZM901.322 300.58C904.922 300.58 908.252 299.77 911.312 298.15C914.552 296.35 918.332 293.65 922.652 290.05V244.69C920.852 245.05 919.052 245.41 917.252 245.77C915.452 246.13 913.382 246.49 911.042 246.85C902.762 249.01 896.102 252.7 891.062 257.92C886.202 262.96 883.772 269.8 883.772 278.44C883.772 285.82 885.482 291.4 888.902 295.18C892.322 298.78 896.462 300.58 901.322 300.58Z" fill="black"/>
<path d="M763.523 313V310.3L766.763 309.22C773.243 307.06 776.483 302.56 776.483 295.72V151.27C776.483 147.67 775.763 144.97 774.323 143.17C772.883 141.19 770.363 139.75 766.763 138.85L763.253 138.04V135.34L812.663 123.73L815.903 126.16L814.823 163.96V256.3C814.823 262.96 814.823 269.62 814.823 276.28C815.003 282.76 815.093 289.24 815.093 295.72C815.093 299.32 815.813 302.29 817.253 304.63C818.693 306.79 821.123 308.41 824.543 309.49L828.053 310.3V313H763.523Z" fill="black"/>
<path d="M654.287 317.05C643.847 317.05 635.027 314.08 627.827 308.14C620.807 302.2 617.297 293.65 617.297 282.49C617.297 274.03 621.617 266.29 630.257 259.27C638.897 252.07 652.487 246.67 671.027 243.07C673.907 242.53 677.147 241.99 680.747 241.45C684.347 240.73 688.127 240.01 692.087 239.29V217.96C692.087 205.72 690.557 197.17 687.497 192.31C684.617 187.27 680.027 184.75 673.727 184.75C669.407 184.75 665.987 186.19 663.467 189.07C660.947 191.77 659.327 196.54 658.607 203.38L658.067 206.35C657.707 214.09 655.817 219.76 652.397 223.36C648.977 226.96 644.747 228.76 639.707 228.76C635.027 228.76 631.157 227.32 628.097 224.44C625.037 221.56 623.507 217.69 623.507 212.83C623.507 205.45 626.027 199.24 631.067 194.2C636.287 189.16 643.127 185.38 651.587 182.86C660.047 180.34 669.227 179.08 679.127 179.08C695.147 179.08 707.477 183.04 716.117 190.96C724.937 198.7 729.347 211.39 729.347 229.03V288.7C729.347 296.8 733.127 300.85 740.687 300.85H746.627L749.057 303.01C745.637 307.33 741.857 310.66 737.717 313C733.757 315.34 728.087 316.51 720.707 316.51C712.787 316.51 706.487 314.71 701.807 311.11C697.307 307.33 694.337 302.38 692.897 296.26C687.497 302.02 681.917 306.97 676.157 311.11C670.577 315.07 663.287 317.05 654.287 317.05ZM670.757 300.58C674.357 300.58 677.687 299.77 680.747 298.15C683.987 296.35 687.767 293.65 692.087 290.05V244.69C690.287 245.05 688.487 245.41 686.687 245.77C684.887 246.13 682.817 246.49 680.477 246.85C672.197 249.01 665.537 252.7 660.497 257.92C655.637 262.96 653.207 269.8 653.207 278.44C653.207 285.82 654.917 291.4 658.337 295.18C661.757 298.78 665.897 300.58 670.757 300.58Z" fill="black"/>
<path d="M445.94 313V310.3L450.8 308.41C454.4 306.97 456.83 305.17 458.09 303.01C459.53 300.85 460.25 297.97 460.25 294.37V153.43C460.25 149.65 459.53 146.68 458.09 144.52C456.83 142.36 454.4 140.65 450.8 139.39L445.94 137.5V134.8H523.43C545.39 134.8 561.23 138.85 570.95 146.95C580.67 154.87 585.53 164.95 585.53 177.19C585.53 186.37 581.93 194.74 574.73 202.3C567.71 209.68 555.56 214.9 538.28 217.96C558.08 220.12 572.57 225.34 581.75 233.62C590.93 241.72 595.52 251.62 595.52 263.32C595.52 269.08 594.26 274.93 591.74 280.87C589.22 286.63 584.9 291.94 578.78 296.8C572.84 301.66 564.65 305.62 554.21 308.68C543.77 311.56 530.54 313 514.52 313H445.94ZM500.21 217.69H511.82C523.88 217.69 532.52 214.9 537.74 209.32C543.14 203.74 545.84 194.02 545.84 180.16C545.84 165.76 543.41 155.5 538.55 149.38C533.69 143.26 525.77 140.2 514.79 140.2H500.21V217.69ZM500.21 307.6H513.71C527.21 307.6 537.2 304 543.68 296.8C550.34 289.6 553.67 278.35 553.67 263.05C553.67 248.65 550.52 238.39 544.22 232.27C537.92 226.15 527.57 223.09 513.17 223.09H500.21V307.6Z" fill="black"/>
<path d="M340.5 244.5C347 214 336 194 328 177L359.5 185L363 254C352.5 262.333 334.555 272.397 340.5 244.5Z" fill="black"/>
<path d="M164.24 333.024C136.091 319.604 126.927 298.699 118.316 282L105.477 311.856L158.072 356.656C171.076 353.403 189.988 345.299 164.24 333.024Z" fill="black"/>
</svg>
