<svg width="436" height="436" viewBox="0 0 436 436" fill="none" xmlns="http://www.w3.org/2000/svg">
<circle cx="218.157" cy="217.842" r="148.923" transform="rotate(-25.2176 218.157 217.842)" fill="white"/>
<path fill-rule="evenodd" clip-rule="evenodd" d="M365.434 148.075C384.372 188.289 385.48 232.315 371.966 271.232C358.056 311.293 328.652 345.938 287.255 365.434C245.858 384.929 200.421 385.529 160.677 370.736C122.069 356.366 88.8342 327.469 69.896 287.255C31.4625 205.644 66.4643 108.33 148.075 69.896C229.685 31.4625 327 66.4643 365.434 148.075ZM94.4796 230.171L131.457 308.69C167.843 343.132 223.003 353.689 271.065 331.055C319.127 308.421 346.122 259.174 342.747 209.186L305.769 130.667C302.239 123.172 293.302 119.957 285.808 123.487L274.168 128.969C266.673 132.498 263.458 141.435 266.988 148.93L311.736 243.948C315.265 251.443 312.051 260.38 304.556 263.909L303.614 264.353C296.119 267.883 287.182 264.668 283.653 257.173L238.34 160.955C235.122 154.123 226.976 151.193 220.145 154.41C213.313 157.628 210.383 165.774 213.6 172.606L247.618 244.839C251.147 252.333 247.933 261.27 240.438 264.8L239.496 265.244C232.001 268.773 223.064 265.559 219.535 258.064L185.517 185.831C182.3 178.999 174.154 176.069 167.322 179.286C160.491 182.504 157.561 190.65 160.778 197.482L184.55 247.96C188.08 255.455 184.865 264.392 177.371 267.922L176.429 268.365C168.934 271.895 159.997 268.68 156.468 261.186L133.261 211.908C129.731 204.413 120.794 201.198 113.299 204.728L101.659 210.21C94.1644 213.739 90.95 222.676 94.4796 230.171Z" fill="black"/>
<path d="M340.5 244.5C347 214 336 194 328 177L359.5 185L363 254C352.5 262.333 334.555 272.397 340.5 244.5Z" fill="black"/>
<path d="M164.24 333.024C136.091 319.604 126.927 298.699 118.316 282L105.477 311.856L158.072 356.656C171.076 353.403 189.988 345.299 164.24 333.024Z" fill="black"/>
</svg>
